<?xml version="1.0" standalone="no"?>
<!DOCTYPE svg PUBLIC "-//W3C//DTD SVG 20010904//EN"
 "http://www.w3.org/TR/2001/REC-SVG-20010904/DTD/svg10.dtd">
<svg version="1.0" xmlns="http://www.w3.org/2000/svg"
 width="706.000000pt" height="213.000000pt" viewBox="0 0 706.000000 213.000000"
 preserveAspectRatio="xMidYMid meet">
<metadata>
Created by potrace 1.16, written by Peter Selinger 2001-2019
</metadata>
<g transform="translate(0.000000,213.000000) scale(0.100000,-0.100000)"
fill="#000000" stroke="none">
<path d="M155 2101 c-27 -12 -53 -36 -78 -72 l-37 -54 0 -889 c0 -1004 -6
-934 79 -987 25 -16 51 -32 56 -37 16 -13 6704 -20 6713 -7 4 6 28 23 54 38
89 51 83 -8 86 847 1 415 -1 822 -6 906 -8 144 -10 153 -35 180 -15 16 -27 32
-27 36 0 3 -17 17 -38 30 l-37 23 -3345 2 c-3224 3 -3346 2 -3385 -16z m805
-312 c55 -17 73 -55 78 -166 5 -96 -2 -143 -18 -143 -6 0 -10 39 -10 93 0 165
-27 207 -130 207 -33 0 -60 -4 -60 -9 0 -5 -14 -12 -30 -16 -40 -9 -86 -56
-94 -96 -3 -17 -6 -78 -6 -135 0 -86 -3 -104 -15 -104 -12 0 -15 19 -15 113 0
61 5 128 10 147 15 53 63 100 102 101 18 1 47 5 63 9 45 12 84 11 125 -1z
m3528 -51 c3 -13 -3 -18 -20 -18 -35 0 -48 -18 -48 -67 0 -41 1 -43 31 -43 24
0 30 -4 27 -17 -2 -11 -14 -19 -31 -21 l-27 -3 0 -114 c0 -120 -4 -145 -25
-145 -21 0 -25 25 -25 146 0 107 -1 114 -20 114 -13 0 -20 7 -20 20 0 13 7 20
19 20 15 0 19 10 23 52 4 41 11 57 33 75 32 28 78 28 83 1z m-1178 -192 c0
-210 -3 -236 -25 -236 -22 0 -25 26 -25 236 l0 204 25 0 25 0 0 -204z m850
-16 c0 -213 -1 -220 -20 -220 -16 0 -20 7 -20 32 l0 32 -30 -34 c-22 -25 -38
-33 -62 -33 -17 0 -34 5 -36 11 -2 7 -10 12 -17 12 -21 0 -55 67 -61 123 -5
43 -1 60 18 96 36 68 120 89 171 44 16 -15 17 -11 17 70 0 80 2 87 20 87 19 0
20 -7 20 -220z m-2022 185 c20 -9 50 -29 66 -46 25 -26 30 -39 34 -104 2 -40
2 -86 -2 -100 -9 -36 -109 -135 -135 -135 -12 0 -21 -4 -21 -10 0 -6 -28 -10
-65 -10 l-65 0 0 210 0 210 75 0 c46 0 90 -6 113 -15z m327 -109 c45 -19 75
-69 75 -124 0 -53 -18 -97 -59 -142 -27 -29 -39 -34 -70 -34 -69 2 -121 75
-121 167 0 68 24 111 74 133 40 17 59 17 101 0z m670 4 c39 -15 55 -65 55
-174 0 -101 -5 -126 -25 -126 -20 0 -25 25 -25 133 0 79 -3 104 -17 119 -21
24 -54 23 -87 -3 -25 -20 -26 -23 -26 -135 0 -105 -1 -114 -19 -114 -28 0 -31
18 -31 166 l0 134 25 0 c17 0 25 -6 25 -17 0 -14 2 -15 18 -1 32 28 65 34 107
18z m410 -4 c22 -10 41 -28 54 -55 36 -69 23 -141 -34 -206 -30 -33 -42 -40
-75 -40 -29 0 -45 7 -65 29 -48 52 -57 73 -57 137 0 71 18 104 73 131 41 22
59 22 104 4z m293 -22 c20 -23 22 -35 22 -150 0 -117 -1 -124 -20 -124 -15 0
-20 7 -20 25 0 14 -4 25 -8 25 -5 0 -15 -11 -22 -25 -7 -14 -20 -26 -29 -27
-60 -6 -92 23 -99 90 -6 64 22 97 96 113 62 13 69 22 42 49 -24 24 -45 25 -84
5 -37 -19 -38 -19 -34 8 2 15 14 26 38 34 47 17 90 8 118 -23z m810 8 c3 -17
-2 -22 -20 -22 -52 0 -68 -35 -68 -144 0 -93 -5 -116 -26 -116 -11 0 -14 28
-14 150 0 143 1 150 20 150 14 0 20 -7 20 -22 1 -21 1 -21 11 -5 11 19 47 38
64 33 6 -1 11 -12 13 -24z m219 6 c67 -32 81 -151 27 -229 -15 -21 -32 -39
-40 -39 -7 0 -14 -6 -16 -12 -7 -21 -81 -15 -105 7 -43 41 -63 88 -63 148 0
118 91 176 197 125z m290 -2 l28 -24 28 24 c38 33 70 31 101 -7 25 -29 26 -36
26 -155 0 -117 -1 -124 -20 -124 -19 0 -20 7 -20 125 0 113 -2 125 -19 135
-29 15 -40 13 -66 -16 -23 -25 -25 -34 -25 -135 0 -102 -1 -109 -20 -109 -19
0 -20 7 -20 115 0 102 -2 117 -20 135 -26 26 -46 25 -75 -5 -24 -23 -25 -31
-25 -135 0 -103 -1 -110 -20 -110 -19 0 -20 7 -20 150 0 143 1 150 20 150 12
0 20 -7 20 -17 0 -14 2 -15 18 -1 38 34 72 35 109 4z m-2534 -38 c8 -29 21
-78 28 -108 14 -63 15 -61 51 70 19 69 27 86 44 88 17 2 23 -6 37 -56 9 -33
19 -78 23 -101 4 -22 10 -41 14 -41 4 0 12 19 18 43 38 152 38 152 60 155 26
4 25 6 11 -38 -9 -31 -30 -110 -60 -222 -7 -26 -15 -38 -28 -38 -15 0 -23 20
-46 116 -15 63 -30 113 -33 110 -3 -4 -13 -37 -23 -74 -37 -146 -39 -152 -58
-152 -14 0 -24 24 -50 128 -48 186 -46 172 -23 172 16 0 24 -11 35 -52z
m-1166 -45 c29 -9 53 -20 53 -23 0 -4 18 -13 40 -20 l40 -13 0 -516 0 -516
-98 -37 c-87 -33 -103 -37 -147 -29 -115 19 -630 126 -635 132 -3 4 -66 19
-140 33 -74 14 -145 29 -157 31 l-23 5 0 369 c0 203 3 377 6 385 4 9 23 19 45
22 21 4 39 10 39 15 0 5 9 9 19 9 10 0 138 23 283 51 144 27 290 55 323 61 33
6 62 14 65 18 3 3 39 12 80 19 41 7 80 15 85 16 25 8 73 4 122 -12z m2093
-738 l0 -325 -30 0 c-28 0 -30 3 -30 38 l-1 37 -27 -33 c-55 -66 -155 -64
-208 5 -53 70 -66 152 -41 260 29 125 167 184 249 107 l28 -28 0 132 0 132 30
0 30 0 0 -325z m1780 249 c0 -47 -5 -51 -34 -29 -32 24 -100 19 -133 -9 -24
-20 -28 -32 -27 -70 1 -47 32 -96 60 -96 18 0 121 -105 140 -142 22 -42 15
-130 -13 -161 -11 -12 -23 -29 -26 -39 -7 -20 -93 -40 -139 -32 -76 13 -88 23
-88 70 0 24 1 44 3 44 1 0 20 -9 42 -20 91 -47 175 -15 175 66 0 36 -5 47 -40
78 -22 20 -44 36 -49 36 -17 0 -121 113 -127 137 -4 13 -4 49 -2 79 4 42 11
61 31 82 15 16 27 33 27 40 0 12 76 19 153 14 l47 -4 0 -44z m-3326 -51 c11
-54 25 -116 32 -138 6 -22 22 -88 35 -147 12 -60 26 -108 29 -108 7 0 39 118
81 298 12 50 26 92 30 92 5 0 11 23 15 50 l7 50 38 0 c33 0 39 -3 39 -20 0
-22 21 -117 44 -205 8 -27 24 -98 37 -157 12 -60 26 -108 31 -108 4 0 8 2 8 5
0 2 23 104 50 227 28 122 50 231 50 240 0 14 8 18 35 18 27 0 35 -4 35 -18 0
-18 -13 -73 -103 -435 l-41 -168 -34 3 c-34 3 -35 4 -57 83 -13 44 -40 153
-61 242 l-38 163 -17 -68 c-9 -37 -20 -86 -24 -109 -4 -24 -10 -43 -14 -43 -4
0 -23 -61 -41 -135 l-34 -136 -34 3 c-34 3 -36 5 -53 68 -10 36 -30 112 -44
170 -14 58 -29 119 -34 135 -17 52 -51 206 -51 226 0 15 7 19 33 19 l32 0 19
-97z m3506 -18 l0 -65 45 0 c43 0 45 -1 45 -30 0 -29 -2 -30 -45 -30 l-45 0 0
-142 c0 -79 4 -150 9 -158 6 -8 24 -14 45 -13 34 1 36 0 36 -33 0 -36 -8 -40
-75 -35 -67 6 -85 59 -85 250 l0 131 -30 0 c-27 0 -30 3 -30 30 0 27 3 30 30
30 29 0 30 1 30 49 0 40 4 53 22 65 41 29 48 21 48 -49z m-2431 -86 c43 -32
51 -69 51 -256 l0 -163 -35 0 -35 0 0 135 c0 167 -12 228 -46 244 -58 26 -115
2 -132 -57 -7 -22 -12 -101 -12 -181 l0 -141 -30 0 -30 0 0 220 0 220 30 0
c27 0 30 -3 30 -32 l0 -32 16 23 c38 54 134 64 193 20z m808 16 c21 -9 52 -31
69 -50 58 -63 71 -221 23 -276 -11 -13 -29 -37 -40 -55 -44 -72 -185 -81 -246
-16 -61 66 -80 150 -58 257 16 77 39 108 100 136 49 23 104 24 152 4z m887 5
c20 -7 26 -16 26 -41 0 -26 -3 -30 -17 -24 -36 14 -91 17 -112 6 -16 -9 -21
-21 -21 -50 0 -42 13 -58 75 -89 56 -28 77 -54 82 -107 11 -89 -70 -159 -160
-139 -57 12 -67 22 -67 65 l0 39 26 -16 c31 -21 105 -24 127 -5 23 19 21 48
-4 69 -12 9 -26 22 -33 27 -6 6 -28 21 -50 34 -64 40 -85 126 -45 183 36 50
112 72 173 48z m1152 -9 c52 -24 81 -65 94 -132 19 -100 7 -163 -45 -239 -31
-45 -71 -64 -135 -64 -121 0 -190 78 -190 214 0 135 27 187 113 222 55 22 112
22 163 -1z m348 13 c10 -4 16 -18 16 -38 0 -30 -2 -32 -34 -28 -81 9 -106 -50
-106 -250 l0 -128 -30 0 -30 0 0 220 0 220 30 0 c28 0 30 -3 30 -37 l0 -38 20
30 c11 17 32 35 47 42 33 14 37 15 57 7z m333 -47 c43 -44 45 -49 50 -122 l6
-75 -137 0 -136 0 0 -33 c0 -44 45 -93 95 -103 28 -5 51 -1 89 15 63 26 66 26
66 1 0 -73 -138 -111 -232 -64 -38 20 -88 124 -88 185 0 159 75 255 194 246
42 -4 54 -10 93 -50z m-3889 -174 l-3 -218 -30 0 -30 0 -3 205 c-1 112 0 210
2 217 3 7 19 13 36 13 l30 0 -2 -217z m1388 167 c6 -25 21 -88 33 -141 11 -53
25 -107 30 -120 l9 -24 11 28 c6 16 11 33 11 39 0 9 26 108 57 216 13 47 17
52 44 52 21 0 30 -6 34 -22 3 -13 19 -84 36 -158 17 -74 34 -141 38 -149 9
-14 12 -3 47 164 31 147 36 160 74 163 24 3 31 0 28 -10 -13 -33 -29 -92 -59
-208 -58 -230 -52 -215 -87 -218 -27 -3 -32 1 -38 25 -3 15 -20 80 -36 143
-17 63 -33 128 -37 143 -5 24 -11 10 -33 -75 -60 -230 -62 -233 -95 -236 -29
-3 -31 -1 -46 55 -53 203 -97 373 -97 378 0 4 15 5 32 3 29 -3 34 -8 44 -48z"/>
<path d="M3997 1553 c-35 -25 -37 -29 -37 -79 0 -45 4 -57 27 -79 34 -31 82
-33 108 -5 12 14 20 41 23 78 4 52 1 60 -23 85 -34 34 -51 34 -98 0z"/>
<path d="M1992 1534 l3 -159 48 2 c89 5 128 42 141 133 9 59 -12 127 -45 152
-16 12 -50 22 -88 25 l-62 6 3 -159z"/>
<path d="M2358 1550 c-28 -28 -30 -35 -26 -85 6 -69 27 -95 80 -95 59 0 78 26
78 104 0 58 -3 67 -26 85 -37 29 -70 26 -106 -9z"/>
<path d="M3438 1550 c-28 -28 -30 -35 -26 -85 6 -69 27 -95 79 -95 54 0 79 34
79 111 0 50 -3 60 -26 78 -37 29 -70 26 -106 -9z"/>
<path d="M4738 1550 c-28 -28 -30 -36 -26 -80 7 -71 29 -100 77 -100 25 0 47
8 64 23 24 20 27 30 27 84 0 59 -1 62 -34 82 -46 29 -72 26 -108 -9z"/>
<path d="M1060 1212 c0 -5 -43 -14 -96 -21 -53 -6 -101 -14 -105 -17 -5 -3 -9
-50 -9 -105 l0 -99 140 0 140 0 0 125 0 125 -35 0 c-19 0 -35 -4 -35 -8z"/>
<path d="M700 1156 l-75 -11 0 -85 0 -85 108 -3 107 -3 0 101 0 100 -32 -1
c-18 -1 -67 -7 -108 -13z"/>
<path d="M627 953 c-10 -9 -8 -166 2 -181 4 -7 39 -17 77 -22 38 -5 84 -12
102 -15 l32 -6 0 116 0 115 -103 0 c-57 0 -107 -3 -110 -7z"/>
<path d="M857 953 c-8 -7 -10 -223 -2 -223 3 0 47 -6 98 -14 50 -8 111 -17
135 -20 l42 -6 0 135 0 135 -133 0 c-74 0 -137 -3 -140 -7z"/>
<path d="M3330 828 c-38 -15 -52 -53 -57 -150 -5 -77 -3 -90 16 -117 47 -66
131 -62 178 8 27 39 32 135 11 204 -17 58 -81 82 -148 55z"/>
<path d="M3749 825 c-55 -30 -79 -187 -39 -253 44 -72 137 -79 190 -14 26 32
30 44 30 100 0 91 -25 156 -65 171 -42 15 -84 13 -116 -4z"/>
<path d="M5790 829 c-56 -23 -87 -97 -78 -190 4 -41 11 -56 41 -84 63 -59 147
-55 187 9 23 38 27 129 9 202 -10 37 -17 47 -47 59 -39 17 -76 18 -112 4z"/>
<path d="M6440 826 c-23 -13 -48 -62 -49 -98 -1 -16 10 -18 99 -18 64 0 100 4
100 11 0 41 -24 98 -46 108 -33 15 -73 13 -104 -3z"/>
<path d="M7051 217 c-1 -43 -25 -90 -63 -123 -36 -31 -61 -63 -40 -50 7 4 12
5 12 2 0 -31 -25 -31 -3395 -36 l-3350 -5 3354 -3 c3338 -2 3354 -2 3386 18
30 19 88 93 90 115 1 6 5 27 9 47 4 20 6 43 3 50 -3 7 -6 0 -6 -15z"/>
</g>
</svg>
